# xmcd
#
# Track frame offsets:
#	150
#	17227
#	34250
#	48202
#	64695
#	81602
#	96760
#	113155
#	129740
#	144872
#	163787
#	179000
#	187267
#
# Disc length: 2736 seconds
#
# Revision: 4
# Processed by: cddbd v1.5PL3 Copyright (c) Steve Scherf et al.
# Submitted via: MusicManager 7.0.4.0 
#
DISCID=bc0aae0d
DTITLE=Collin Raye - The Walls Came Down
DYEAR=1998
DGENRE=Country
TTITLE0=Anyone Else
TTITLE1=I Wish I Could
TTITLE2=Start Over Georgia
TTITLE3=I Can Still Feel You
TTITLE4=Someone You Used To Know
TTITLE5=Corner Of The Heart
TTITLE6=All My Roads
TTITLE7=The Walls Came Down
TTITLE8=April Fool
TTITLE9=Make Sure You've Got It All
TTITLE10=Survivors
TTITLE11=Dark Secrets
TTITLE12=The Eleventh Commandment
EXTD=
EXTT0=
EXTT1=
EXTT2=
EXTT3=
EXTT4=
EXTT5=
EXTT6=
EXTT7=
EXTT8=
EXTT9=
EXTT10=
EXTT11=
EXTT12=
PLAYORDER=
